# xmcd CD database file
#
# Track frame offsets:
#	150
#	18783
#	35858
#	49495
#	65266
#	80194
#	96791
#	112043
#	133050
#	146980
#	156414
#	175854
#
# Disc length: 2578 seconds
#
# Revision: 0
# Processed by: cddbd v1.5.2PL0 Copyright (c) Steve Scherf et al.
# Submitted via: CDex 1.70beta2
#
DISCID=b30a100c
DTITLE=Divers - Party Creole sur la Plage (Disk #1)
DYEAR=2010
DGENRE=Salsa
TTITLE0=Soca Party sur la plage
TTITLE1=Scandale dans la famille
TTITLE2=Salade de fruits
TTITLE3=Taka Takata
TTITLE4=Tic Tic Tac
TTITLE5=Cecilia
TTITLE6=Le sable et la mer
TTITLE7=Hasta La Vista
TTITLE8=Quando Quando
TTITLE9=Que Sera Sera
TTITLE10=Si Si Te Quero Mambo
TTITLE11=Clap Clap Song
EXTD=YEAR: 2010
EXTT0=
EXTT1=
EXTT2=
EXTT3=
EXTT4=
EXTT5=
EXTT6=
EXTT7=
EXTT8=
EXTT9=
EXTT10=
EXTT11=
PLAYORDER=
